<svg id="Calque_1" data-name="Calque 1" xmlns="http://www.w3.org/2000/svg" width="182.67" height="205.67" viewBox="0 0 182.67 205.67"><defs><style>.cls-1{fill:#5dacbc;}.cls-2{fill:#5db681;}.cls-3{fill:#e9494b;}</style></defs><title>Plan de travail 1</title><rect class="cls-1" x="30.11" y="83.29" width="18.92" height="96.9"/><rect class="cls-2" x="58.88" y="22.52" width="29.39" height="157.89"/><rect class="cls-1" x="58.88" y="22.52" width="29.39" height="157.89"/><rect class="cls-3" x="94.8" y="22.52" width="29.39" height="157.89"/><rect class="cls-3" x="133.6" y="69.46" width="18.92" height="110.95"/><path class="cls-1" d="M48,65.67a4,4,0,0,1-1.73-.52L40.83,62v6.22c0,1.91-.75,2.86-2.25,2.86s-2.24-1-2.24-2.86V62l-5.45,3.11a4,4,0,0,1-1.73.52A1.87,1.87,0,0,1,27.7,65a2.17,2.17,0,0,1-.61-1.47,2.71,2.71,0,0,1,1.56-2.25l5.44-3.19-5.44-3a2.68,2.68,0,0,1-1.56-2.25,2.56,2.56,0,0,1,.52-1.38,1.73,1.73,0,0,1,1.55-.78,4.17,4.17,0,0,1,1.73.52l5.45,3.11V48c0-1.9.78-2.85,2.33-2.85s2.16,1,2.16,2.85v6.22l5.45-3.11A4.13,4.13,0,0,1,48,50.63a2,2,0,0,1,1.55.69,2.24,2.24,0,0,1,.61,1.47q0,1.22-1.65,2.25l-5.35,3,5.35,3.19q1.65,1,1.65,2.25a2.45,2.45,0,0,1-.57,1.38A1.83,1.83,0,0,1,48,65.67Z"/></svg>