<svg id="Calque_1" data-name="Calque 1" xmlns="http://www.w3.org/2000/svg" viewBox="0 0 531.55 197.59"><defs><style>.cls-1{fill:#38302e;stroke:#3b3231;stroke-miterlimit:10;stroke-width:5px;}.cls-2{fill:#5dacbc;}.cls-3{fill:#5db681;}.cls-4{fill:#e9494b;}</style></defs><title>Plan de travail 1</title><path class="cls-1" d="M79.85,101.72H77.54V97.09h68.92a2.19,2.19,0,0,1,2.32,2.31c0,43.72-31.23,78.64-69.16,78.64C41.46,178,10,143.12,10,99.4S41.46,20.77,79.62,20.77c26.14-.24,50.65,16,59.67,33.53l1.62,3.47h-5.09l-.69-1.15C126.57,40,103.91,25.16,79.62,25.39c-35.85,0-65,33.08-65,74s29.14,74,65,74c35.62,0,64.53-33.08,64.53-71.7Z"/><path class="cls-1" d="M301,120.49C301,89.5,322.74,65,349.11,65c18.12,0,34.08,12.54,41.63,31.18V65h4.63V176h-4.63V144.82C383.19,163.47,367.23,176,349.11,176,322.74,176,301,151.49,301,120.49Zm4.63,0c0,28.22,19.43,50.89,43.48,50.89,22.9,0,41.63-22.9,41.63-50.89S372,69.61,349.11,69.61C325.06,69.61,305.63,92.28,305.63,120.49Z"/><path class="cls-1" d="M520.26,173.69l.24,2.55h-4.4l-.23-2.32-.23-62.45c0-22.89-17.35-41.86-39.32-41.86S437,88.58,437,111.47V176h-4.63V65H437v25.7C444.21,75.45,459.1,65,476.32,65c24.28,0,43.94,20.82,43.94,46.49Z"/><rect class="cls-2" x="164.91" y="78.88" width="18.92" height="96.9"/><rect class="cls-3" x="193.67" y="18.12" width="29.39" height="157.89"/><rect class="cls-2" x="193.67" y="18.12" width="29.39" height="157.89"/><rect class="cls-4" x="229.59" y="18.12" width="29.39" height="157.89"/><rect class="cls-4" x="268.39" y="65.05" width="18.92" height="110.95"/><path class="cls-2" d="M182.8,61.26a4,4,0,0,1-1.73-.52l-5.44-3.11v6.23q0,2.85-2.25,2.85t-2.25-2.85V57.63l-5.44,3.11a4,4,0,0,1-1.73.52,1.88,1.88,0,0,1-1.47-.69,2.21,2.21,0,0,1-.6-1.47,2.69,2.69,0,0,1,1.55-2.25l5.45-3.19-5.45-3a2.67,2.67,0,0,1-1.55-2.24A2.62,2.62,0,0,1,162.4,47a1.76,1.76,0,0,1,1.56-.78,4.17,4.17,0,0,1,1.73.52l5.44,3.11V43.63q0-2.85,2.34-2.85,2.16,0,2.16,2.85v6.22l5.44-3.11a4.17,4.17,0,0,1,1.73-.52,2,2,0,0,1,1.56.7,2.21,2.21,0,0,1,.6,1.47c0,.8-.55,1.55-1.64,2.24l-5.36,3,5.36,3.19c1.09.7,1.64,1.45,1.64,2.25a2.45,2.45,0,0,1-.56,1.38A1.86,1.86,0,0,1,182.8,61.26Z"/></svg>