<?xml version="1.0" encoding="utf-8"?>
<!-- Generator: Adobe Illustrator 26.3.1, SVG Export Plug-In . SVG Version: 6.00 Build 0)  -->
<svg version="1.1" id="Calque_1" xmlns="http://www.w3.org/2000/svg" xmlns:xlink="http://www.w3.org/1999/xlink" x="0px" y="0px"
	 viewBox="0 0 531.5 197.6" style="enable-background:new 0 0 531.5 197.6;" xml:space="preserve">
<style type="text/css">
	.st0{fill:#FFFFFF;stroke:#FFFFFF;stroke-width:5;stroke-miterlimit:10;}
	.st1{fill:#5DACBC;}
	.st2{fill:#5DB681;}
	.st3{fill:#E9494B;}
</style>
<path class="st0" d="M79.8,101.7h-2.3v-4.6h68.9c1.2-0.1,2.2,0.8,2.3,2.1c0,0.1,0,0.2,0,0.3c0,43.7-31.2,78.6-69.2,78.6
	C41.5,178,10,143.1,10,99.4s31.5-78.6,69.6-78.6c26.1-0.2,50.7,16,59.7,33.5l1.6,3.5h-5.1l-0.7-1.2c-8.6-16.6-31.2-31.5-55.5-31.2
	c-35.8,0-65,33.1-65,74s29.1,74,65,74c35.6,0,64.5-33.1,64.5-71.7L79.8,101.7z"/>
<path class="st0" d="M301,120.5c0-31,21.7-55.5,48.1-55.5c18.1,0,34.1,12.5,41.6,31.2V65h4.6v111h-4.6v-31.2
	c-7.5,18.6-23.5,31.2-41.6,31.2C322.7,176,301,151.5,301,120.5z M305.6,120.5c0,28.2,19.4,50.9,43.5,50.9
	c22.9,0,41.6-22.9,41.6-50.9S372,69.6,349.1,69.6C325.1,69.6,305.6,92.3,305.6,120.5z"/>
<path class="st0" d="M520.3,173.7l0.2,2.6h-4.4l-0.2-2.3l-0.2-62.4c0-22.9-17.4-41.9-39.3-41.9s-39.3,19-39.3,41.9V176h-4.6V65h4.6
	v25.7c7.2-15.2,22.1-25.7,39.3-25.7c24.3,0,43.9,20.8,43.9,46.5V173.7z"/>
<rect x="164.9" y="78.9" class="st1" width="18.9" height="96.9"/>
<rect x="193.7" y="18.1" class="st2" width="29.4" height="157.9"/>
<rect x="193.7" y="18.1" class="st1" width="29.4" height="157.9"/>
<rect x="229.6" y="18.1" class="st3" width="29.4" height="157.9"/>
<rect x="268.4" y="65.1" class="st3" width="18.9" height="110.9"/>
<path class="st1" d="M182.8,61.3c-0.6,0-1.2-0.2-1.7-0.5l-5.4-3.1v6.2c0,1.9-0.8,2.9-2.2,2.9s-2.2-0.9-2.2-2.8v-6.2l-5.4,3.1
	c-0.5,0.3-1.1,0.5-1.7,0.5c-0.6,0-1.1-0.2-1.5-0.7c-0.4-0.4-0.6-0.9-0.6-1.5c0.1-1,0.7-1.8,1.6-2.2l5.4-3.2l-5.4-3
	c-0.9-0.4-1.5-1.3-1.6-2.2c0-0.5,0.2-1,0.5-1.4c0.3-0.5,0.9-0.8,1.6-0.8c0.6,0,1.2,0.2,1.7,0.5l5.4,3.1v-6.2c0-1.9,0.8-2.8,2.3-2.8
	c1.4,0,2.2,0.9,2.2,2.8v6.2l5.4-3.1c0.5-0.3,1.1-0.5,1.7-0.5c0.6,0,1.2,0.2,1.6,0.7c0.4,0.4,0.6,0.9,0.6,1.5c0,0.8-0.6,1.5-1.6,2.2
	l-5.4,3l5.4,3.2c1.1,0.7,1.6,1.5,1.6,2.2c0,0.5-0.2,1-0.6,1.4C184,61,183.4,61.3,182.8,61.3z"/>
</svg>
